<svg width="1440" height="80" viewBox="0 0 1440 80" fill="none" xmlns="http://www.w3.org/2000/svg">
<rect width="1440" height="80" fill="#1CBBCE" fill-opacity="0.1"/>
<path fill-rule="evenodd" clip-rule="evenodd" d="M761.068 24.1188V24.1182H761.444V24.1222C765.584 24.1967 769.352 25.5011 772.117 27.8423C774.973 30.2598 776.738 33.7661 776.738 38.0945V41.293C776.738 41.3913 776.737 41.489 776.736 41.5862C776.689 47.1051 774.957 50.9723 772.122 53.4603C769.343 55.9 765.564 56.9609 761.444 57.0214V57.0239H761.191L761.068 57.0242H760.064H760.002V57.0247C759.947 57.0247 759.891 57.0245 759.836 57.0242H759.625V57.0219C755.506 56.9614 751.727 55.9002 748.947 53.4526C746.074 50.9218 744.333 46.9657 744.333 41.293V38.0945C744.333 38.0268 744.334 37.9594 744.335 37.8922C744.389 33.6568 746.143 30.222 748.954 27.8423C751.803 25.4304 755.716 24.1188 760.002 24.1188V24.1189L760.065 24.1188H761.068ZM749.515 28.4973C752.098 26.3169 755.653 25.0672 759.625 24.9814V25.0388H760.064H761.068C765.185 25.0388 768.892 26.2986 771.562 28.5591C774.226 30.814 775.879 34.081 775.879 38.1566V41.3552C775.879 41.4297 775.879 41.504 775.878 41.5778C775.821 46.912 774.156 50.5189 771.55 52.8002C768.888 55.1304 765.179 56.1351 761.009 56.1042L761.006 56.1042H760.002C755.864 56.1042 752.169 55.0845 749.514 52.7535C746.868 50.4313 745.191 46.7517 745.191 41.293V38.0945C745.191 37.8397 745.198 37.5882 745.21 37.3398C745.402 33.6145 747.011 30.6112 749.515 28.4973ZM766.085 34.7698C766.775 35.3969 767.152 36.2123 767.214 37.0903C767.34 38.1565 767.465 43.2365 767.152 44.4281C766.713 45.9333 765.709 46.874 764.141 47.1249C762.95 47.3131 757.681 47.3131 756.615 47.0622C755.047 46.6859 754.107 45.6824 753.856 44.1145C753.668 42.9856 753.605 37.592 753.918 36.4631C754.357 34.9579 755.361 34.0799 756.866 33.829C758.246 33.5782 762.009 33.6409 763.577 33.7663C764.517 33.829 765.395 34.0799 766.085 34.7698ZM763.765 45.9333C765.019 45.8079 765.772 45.0553 765.96 43.8637C766.148 42.672 766.148 38.3446 766.023 37.153C765.897 35.8987 765.145 35.1461 763.953 34.9579C762.761 34.8325 758.434 34.8325 757.242 34.9579C756.051 35.0834 755.298 35.836 755.11 37.0276C754.922 38.2819 754.985 42.9856 755.11 43.9264C755.235 44.9298 755.8 45.557 756.741 45.8079C757.744 46.1214 762.699 46.0587 763.765 45.9333ZM756.991 40.477C756.991 38.5328 758.559 36.9649 760.504 36.9649C762.448 36.9649 764.016 38.5328 764.016 40.477C764.016 42.4212 762.448 43.9891 760.504 43.9891C758.559 43.9891 756.991 42.4212 756.991 40.477ZM758.246 40.477C758.246 41.7313 759.249 42.7348 760.504 42.7348C761.758 42.7348 762.761 41.7313 762.761 40.477C762.761 39.2226 761.758 38.2192 760.504 38.2192C759.249 38.2192 758.246 39.2226 758.246 40.477ZM764.141 37.6547C764.58 37.6547 764.956 37.2784 764.956 36.8394C764.956 36.4004 764.643 36.0241 764.141 36.0241C763.702 36.0241 763.326 36.4004 763.326 36.8394C763.326 37.2784 763.702 37.6547 764.141 37.6547Z" fill="#333333"/>
<path fill-rule="evenodd" clip-rule="evenodd" d="M643.907 39.7847C643.876 34.3264 645.538 30.6477 648.175 28.3262C649.393 27.2544 650.832 26.4599 652.433 25.9142C654.316 25.2737 656.421 24.9764 658.655 24.9764V24.9761H658.718H659.721H659.722L659.739 24.9761C663.877 24.989 667.557 26.0108 670.203 28.327C672.856 30.6491 674.533 34.3285 674.533 39.7871V42.9857C674.533 47.0613 672.88 50.3284 670.216 52.5832C667.546 54.8437 663.839 56.1035 659.722 56.1035H658.718C654.601 56.1035 650.894 54.8437 648.224 52.5832C645.56 50.3284 643.907 47.0613 643.907 42.9857L643.907 39.7871L643.907 39.7847ZM652.163 25.1002C654.043 24.4607 656.114 24.1527 658.279 24.1209V24.1183H658.577L658.656 24.1182H659.659L659.722 24.1183H659.738H660.098V24.121C664.218 24.1815 667.997 25.2424 670.776 27.6821C673.263 29.8655 674.902 33.1109 675.298 37.6024C675.359 38.3004 675.391 39.0284 675.391 39.7871L675.391 39.7873V42.9858L675.391 42.9858C675.391 43.2563 675.384 43.5236 675.37 43.7875C675.166 47.7481 673.448 50.9715 670.77 53.238C668.005 55.5791 664.237 56.8835 660.098 56.958V57.0237H659.721V56.9614H658.718H658.655V56.9618C658.616 56.9618 658.577 56.9616 658.537 56.9614H658.279V56.9584C654.14 56.8839 650.372 55.5794 647.607 53.2383C644.751 50.8208 642.986 47.3145 642.986 42.9861V39.7876C642.986 34.1454 644.727 30.2051 647.601 27.6824C648.92 26.5246 650.464 25.6774 652.163 25.1002ZM659.91 42.0451C659.91 40.9789 660.098 39.9754 661.415 39.9754C662.67 39.9754 662.67 41.167 662.607 41.9823V45.8708H665.053V41.4806C665.053 39.3483 664.614 37.7176 662.105 37.7176C660.914 37.7176 660.098 38.4075 659.785 39.0347V37.9685H657.402V45.9962H659.91V42.0451ZM655.896 37.9688H653.388V45.9338H655.896V37.9688ZM656.084 35.4598C656.084 34.6444 655.457 34.0173 654.642 34.0173C653.826 34.0173 653.199 34.6444 653.199 35.4598C653.199 36.2751 653.826 36.9022 654.642 36.9022C655.457 36.9022 656.084 36.2751 656.084 35.4598Z" fill="#333333"/>
<path fill-rule="evenodd" clip-rule="evenodd" d="M811.741 24.1188V24.1182H812.118V24.1222C816.257 24.1967 820.025 25.5012 822.79 27.8423C825.646 30.2598 827.411 33.7661 827.411 38.0945V41.293C827.411 41.3532 827.41 41.4131 827.41 41.4729C827.386 47.0522 825.65 50.9553 822.796 53.4603C820.017 55.9 816.238 56.9609 812.118 57.0214V57.0239H811.865L811.741 57.0242H810.738H810.676V57.0247C810.62 57.0247 810.565 57.0245 810.509 57.0242H810.299V57.0219C806.179 56.9614 802.4 55.9003 799.621 53.4526C796.747 50.9218 795.007 46.9657 795.007 41.293V38.0945C795.007 38.0268 795.007 37.9594 795.008 37.8922C795.062 33.6568 796.816 30.222 799.627 27.8423C802.476 25.4304 806.389 24.1188 810.676 24.1188V24.1189L810.738 24.1188H811.741ZM800.188 28.4973C802.771 26.3169 806.326 25.0672 810.299 24.9814V25.0388H810.738H811.741C815.859 25.0388 819.566 26.2986 822.236 28.5591C824.899 30.814 826.553 34.081 826.553 38.1566V41.3552L826.552 41.4657C826.517 46.8615 824.847 50.503 822.223 52.8002C819.561 55.1304 815.852 56.1351 811.682 56.1042L811.679 56.1042H810.676C806.537 56.1042 802.842 55.0845 800.187 52.7535C797.542 50.4313 795.864 46.7517 795.864 41.293V38.0945C795.864 37.8397 795.871 37.5882 795.884 37.3398C796.075 33.6145 797.685 30.6112 800.188 28.4973ZM818.138 44.4282C818.765 43.1112 818.765 37.9685 818.201 36.5887C818.013 36.087 817.637 35.7107 817.135 35.4598C816.194 35.1462 808.292 35.1462 805.72 35.3971C805.219 35.3971 804.78 35.6479 804.466 36.0242C803.525 37.1531 803.651 42.7976 804.153 44.1774C804.341 44.7418 804.717 45.1181 805.281 45.3063C806.536 45.7453 816.382 45.7453 817.323 45.2435C817.699 45.0554 817.95 44.8045 818.138 44.4282ZM812.804 39.6634C813.2 39.8712 813.597 40.0801 813.999 40.289C813.215 40.6966 812.447 41.1043 811.679 41.5119C810.91 41.9196 810.142 42.3272 809.358 42.7349V37.9057C810.524 38.4655 811.656 39.06 812.804 39.6634Z" fill="#333333"/>
<path fill-rule="evenodd" clip-rule="evenodd" d="M710.395 24.1188V24.1182H710.772V24.1222C714.911 24.1968 718.679 25.5012 721.444 27.8423C724.299 30.2598 726.064 33.7661 726.064 38.0945V41.293L726.064 41.3767C726.06 47.0074 724.32 50.9409 721.45 53.4603C718.67 55.9 714.891 56.9609 710.772 57.0214V57.0239H710.518L710.395 57.0242H709.392H709.329V57.0247C709.274 57.0247 709.218 57.0245 709.163 57.0242H708.953V57.0219C704.833 56.9615 701.053 55.9003 698.274 53.4526C695.4 50.9218 693.66 46.9657 693.66 41.293V38.0945C693.66 38.0268 693.66 37.9594 693.661 37.8922C693.715 33.6568 695.469 30.222 698.28 27.8423C701.129 25.4304 705.042 24.1188 709.329 24.1188V24.1189L709.392 24.1188H710.395L710.395 24.1188ZM698.842 28.4973C701.425 26.3169 704.98 25.0671 708.953 24.9814V25.0388H709.392H710.395C714.512 25.0388 718.219 26.2986 720.889 28.5591C723.553 30.814 725.206 34.081 725.206 38.1566V41.3552L725.206 41.3744C725.19 46.8205 723.515 50.4901 720.876 52.8002C718.214 55.1304 714.505 56.1351 710.336 56.1042L710.332 56.1042H709.329C705.191 56.1042 701.496 55.0845 698.84 52.7535C696.195 50.4313 694.518 46.7517 694.518 41.293V38.0945C694.518 37.8397 694.524 37.5882 694.537 37.3398C694.728 33.6145 696.338 30.6112 698.842 28.4973ZM714.848 37.9056L714.91 37.8429C714.922 37.8333 714.933 37.8239 714.945 37.8144C715.306 37.5139 715.602 37.267 715.663 36.9022C715.726 36.8394 715.773 36.7767 715.82 36.714C715.867 36.6513 715.914 36.5886 715.977 36.5259C715.538 36.714 715.036 36.8394 714.534 36.9022C715.099 36.5259 715.475 36.0868 715.663 35.4597H715.6C715.161 35.7105 714.597 35.8987 714.095 36.0241C714.032 36.0241 714.032 36.0241 713.97 35.9614C713.343 35.3342 712.59 35.0834 711.712 35.2088C710.959 35.3342 710.395 35.7733 709.956 36.4004C709.642 36.9022 709.517 37.4666 709.58 38.0938C709.642 38.2192 709.642 38.2819 709.642 38.4074C707.51 38.2819 705.691 37.3412 704.311 35.7105C703.998 36.275 703.935 36.9022 704.06 37.592C704.186 38.2192 704.562 38.7836 705.127 39.1599C704.75 39.1599 704.374 39.0345 703.998 38.8464C703.998 39.3481 704.123 39.7871 704.374 40.2261C704.75 40.8533 705.315 41.2296 706.067 41.4177H706.005C705.628 41.5432 705.252 41.5432 704.876 41.4805C705.127 42.2958 705.942 43.2365 707.322 43.2992C706.945 43.6128 706.506 43.8637 706.067 44.0518C705.252 44.4281 704.374 44.5536 703.496 44.4281L703.559 44.4908C704.813 45.3061 706.193 45.6824 707.698 45.6197C707.86 45.5995 708.016 45.5858 708.169 45.5723C708.49 45.5439 708.801 45.5165 709.141 45.4316C710.52 45.118 711.712 44.4281 712.715 43.4247C713.28 42.7975 713.719 42.1076 714.095 41.355C714.471 40.6024 714.66 39.8498 714.785 39.0345C714.848 38.6582 714.848 38.2819 714.848 37.9057V37.9056Z" fill="#333333"/>
<path fill-rule="evenodd" clip-rule="evenodd" d="M609.059 23.0006V23H609.443V23.0041C613.663 23.0801 617.504 24.4099 620.322 26.7961C623.233 29.26 625.031 32.8337 625.031 37.2456V40.5077C625.031 40.5827 625.031 40.6574 625.03 40.7318C624.998 46.3986 623.229 50.3639 620.328 52.9108C617.495 55.3971 613.643 56.4788 609.443 56.5405V56.5429H609.198C609.152 56.5432 609.105 56.5433 609.059 56.5433H608.035H607.972V56.5436C607.947 56.5436 607.923 56.5436 607.898 56.5435C607.879 56.5435 607.86 56.5434 607.841 56.5433H607.588V56.5408C603.388 56.4791 599.535 55.3972 596.703 52.9026C593.774 50.3235 592 46.2914 592 40.5077V37.2456C592 37.1766 592 37.1079 592.001 37.0394C592.056 32.7223 593.844 29.2215 596.709 26.7961C599.613 24.3378 603.602 23.0006 607.972 23.0006V23.0007L608.036 23.0006H609.059ZM597.271 27.4511C599.907 25.2259 603.535 23.9508 607.588 23.8633V23.9221H608.035H609.059C613.26 23.9221 617.042 25.2074 619.767 27.5144C622.486 29.8157 624.173 33.15 624.173 37.3092V40.5713C624.173 40.6232 624.173 40.6748 624.173 40.7264C624.129 46.2079 622.426 49.9113 619.755 52.25C617.037 54.6284 613.252 55.6534 608.999 55.6219L608.995 55.6219H607.972C603.75 55.6219 599.979 54.5816 597.269 52.2025C594.569 49.8321 592.858 46.0767 592.858 40.5077V37.2456C592.858 36.8557 592.873 36.473 592.902 36.0978C593.183 32.4704 594.801 29.5366 597.271 27.4511ZM612.449 34.9423V32.5117C612.321 32.4798 612.193 32.4638 612.065 32.4478C611.937 32.4318 611.81 32.4158 611.682 32.3838H610.274C609.507 32.4478 608.803 32.5757 608.228 33.0234C607.524 33.5352 607.14 34.2387 607.012 35.0703C606.948 35.3901 606.948 35.7739 606.948 36.0937V36.0937V37.6928V37.8847H604.646V40.5711H606.948V47.4152H609.763V40.6351H612.065C612.129 39.7396 612.257 38.8442 612.385 37.9487L612.385 37.9486H611.873H609.699V36.0297C609.763 35.1982 610.21 34.9423 610.85 34.9423H612.257H612.449Z" fill="#333333"/>
</svg>
